#N canvas 1 77 591 549 10;
#X declare -lib pduino;
#N canvas 146 163 525 433 serin 0;
#X obj 180 61 cnv 15 15 15 empty \$0-number-canvas 0 4 8 0 14 -233017
-1 0;
#X obj 200 225 s \$0-number-canvas;
#X obj 60 61 hradio 15 1 1 8 empty empty empty 0 -6 0 8 -225271 -1
-1 0;
#X obj 60 13 inlet;
#X msg 200 202 label \$1;
#X obj 200 180 makefilename %d;
#X obj 59 108 int;
#X msg 59 206 open \$1;
#X obj 59 377 outlet;
#X msg 201 306 set \$1 \$2;
#X obj 59 266 trigger bang anything;
#X obj 201 286 list;
#X obj 383 383 outlet;
#X obj 384 22 netreceive 34567;
#X obj 477 43 tgl 15 0 empty empty empty 0 -6 0 10 -262144 -1 -1 0
1;
#X obj 384 41 bng 15 250 50 0 empty empty empty 0 -6 0 10 -262144 -1
-1;
#X obj 187 24 delay 15000;
#X text 345 379 close;
#X text 209 4 for open/close automation in Makefile;
#X obj 184 95 bang;
#X obj 184 137 send ARDUINO_TEST_RESET;
#X msg 184 116 set 0;
#X connect 2 0 6 0;
#X connect 2 0 19 0;
#X connect 3 0 2 0;
#X connect 4 0 1 0;
#X connect 5 0 4 0;
#X connect 6 0 5 0;
#X connect 6 0 7 0;
#X connect 7 0 10 0;
#X connect 9 0 8 0;
#X connect 10 0 8 0;
#X connect 10 1 11 0;
#X connect 11 0 9 0;
#X connect 13 0 15 0;
#X connect 13 1 14 0;
#X connect 15 0 16 0;
#X connect 15 0 12 0;
#X connect 16 0 2 0;
#X connect 19 0 21 0;
#X connect 21 0 20 0;
#X coords 0 -1 1 1 136 17 1 60 60;
#X restore 31 37 pd serin;
#X text 28 19 serial port #;
#X msg 91 60 close;
#X msg 31 60 open 0;
#X obj 151 159 arduino 0;
#N canvas 3 48 451 224 ver 0;
#X obj 23 7 inlet;
#X obj 250 100 cnv 15 145 17 empty \$0-version_cnv empty 4 10 0 12
-203904 -1 0;
#X obj 23 157 send \$0-version_cnv;
#X msg 23 132 label \$1;
#X obj 48 103 symbol;
#X obj 38 77 loadbang;
#X msg 96 78 bang;
#X obj 309 163 outlet;
#X obj 23 52 zexy/makesymbol Firmata-%s.%s;
#X obj 23 29 route version bang;
#X connect 0 0 9 0;
#X connect 3 0 2 0;
#X connect 4 0 3 0;
#X connect 5 0 4 0;
#X connect 6 0 4 0;
#X connect 8 0 3 0;
#X connect 9 0 8 0;
#X connect 9 1 7 0;
#X connect 9 1 6 0;
#X connect 9 2 7 0;
#X coords 0 -1 1 1 145 17 1 250 100;
#X restore 202 229 pd ver;
#N canvas 649 518 411 212 firmware 0;
#X obj 123 2 inlet;
#X obj 250 100 cnv 15 145 17 empty \$0-firmware_cnv StandardFirmata.ino-2.3
4 10 0 12 -232576 -66577 0;
#X msg 123 156 label \$1;
#X obj 148 127 symbol;
#X obj 138 101 loadbang;
#X msg 196 102 bang;
#X obj 123 181 send \$0-firmware_cnv;
#X obj 123 24 route firmware;
#X obj 18 181 print Firmware;
#X obj 123 49 list;
#X obj 123 80 zexy/makesymbol %s-%s.%s;
#X obj 18 151 list trim;
#X obj 204 45 route bang;
#X connect 0 0 7 0;
#X connect 2 0 6 0;
#X connect 3 0 2 0;
#X connect 4 0 3 0;
#X connect 5 0 3 0;
#X connect 7 0 9 0;
#X connect 7 1 12 0;
#X connect 9 0 10 0;
#X connect 10 0 2 0;
#X connect 10 0 11 0;
#X connect 11 0 8 0;
#X connect 12 0 5 0;
#X coords 0 -1 1 1 145 17 1 250 100;
#X restore 202 249 pd firmware;
#N canvas 626 98 404 287 device 0;
#X obj 35 60 inlet;
#X obj 35 118 route open port ports;
#X obj 35 169 tgl 15 0 empty empty open -3 20 0 10 -262144 -1 -1 0
1;
#X floatatom 76 170 5 0 0 3 port - -;
#X obj 117 170 print comport_ports;
#X obj 252 170 outlet;
#X obj 235 74 receive ARDUINO_TEST_RESET;
#X obj 235 97 bang;
#X connect 0 0 1 0;
#X connect 1 0 2 0;
#X connect 1 1 3 0;
#X connect 1 2 4 0;
#X connect 1 3 5 0;
#X connect 6 0 7 0;
#X connect 7 0 5 0;
#X restore 202 207 pd device info;
#X text 294 207 <- open to see info;
#X obj 33 -31 import pduino;
#X floatatom 151 369 5 0 0 3 a0 - -;
#X floatatom 197 369 5 0 0 3 a1 - -;
#X floatatom 243 369 5 0 0 3 a2 - -;
#X floatatom 289 369 5 0 0 3 a3 - -;
#X floatatom 335 369 5 0 0 3 a4 - -;
#X floatatom 381 369 5 0 0 3 a5 - -;
#X floatatom 427 369 5 0 0 3 a6 - -;
#X floatatom 473 369 5 0 0 3 a7 - -;
#X obj 151 274 route analog;
#X obj 151 296 route 0 1 2 3 4 5 6 7;
#X msg 223 63 analogIns 1 1;
#X text 241 43 A1->ph Meter;
#X msg 250 110 analogIns 3 1;
#X text 291 90 Termometer;
#N canvas 1 77 499 396 without 0;
#X obj 6 7 inlet;
#X obj 6 28 mapping/resample 100;
#X obj 6 50 outlet;
#X obj 54 50 inlet;
#X obj 54 71 mapping/resample 100;
#X obj 54 93 outlet;
#X obj 103 93 inlet;
#X obj 103 114 mapping/resample 100;
#X obj 103 136 outlet;
#X obj 151 136 inlet;
#X obj 151 157 mapping/resample 100;
#X obj 151 179 outlet;
#X obj 200 179 inlet;
#X obj 200 200 mapping/resample 100;
#X obj 200 222 outlet;
#X obj 247 222 inlet;
#X obj 247 243 mapping/resample 100;
#X obj 247 265 outlet;
#X obj 295 265 inlet;
#X obj 295 286 mapping/resample 100;
#X obj 295 308 outlet;
#X obj 345 308 inlet;
#X obj 345 329 mapping/resample 100;
#X obj 345 351 outlet;
#X connect 0 0 1 0;
#X connect 1 0 2 0;
#X connect 3 0 4 0;
#X connect 4 0 5 0;
#X connect 6 0 7 0;
#X connect 7 0 8 0;
#X connect 9 0 10 0;
#X connect 10 0 11 0;
#X connect 12 0 13 0;
#X connect 13 0 14 0;
#X connect 15 0 16 0;
#X connect 16 0 17 0;
#X connect 18 0 19 0;
#X connect 19 0 20 0;
#X connect 21 0 22 0;
#X connect 22 0 23 0;
#X restore 151 325 pd without pegging the CPU;
#X obj 223 -20 inlet;
#X obj 223 6 t b b;
#X obj 116 428 f;
#X obj 180 429 f;
#X text 26 -2 start arduino;
#X text 260 -21 set analog input ports;
#X obj 407 -15 inlet;
#X text 445 -17 get values;
#X obj 407 17 s get_arduino;
#X obj 34 353 r get_arduino;
#X floatatom 71 460 5 0 0 0 - - -;
#X floatatom 201 463 5 0 0 0 - - -;
#X msg 258 138 analogIns 3 0;
#X obj 509 6 bng 15 250 50 0 empty empty empty 17 7 0 10 -262144 -1
-1;
#X connect 0 0 3 0;
#X connect 0 1 2 0;
#X connect 2 0 4 0;
#X connect 3 0 4 0;
#X connect 4 0 18 0;
#X connect 4 1 7 0;
#X connect 5 0 6 0;
#X connect 7 0 5 0;
#X connect 18 0 19 0;
#X connect 19 0 24 0;
#X connect 19 1 24 1;
#X connect 19 2 24 2;
#X connect 19 3 24 3;
#X connect 19 4 24 4;
#X connect 19 5 24 5;
#X connect 19 6 24 6;
#X connect 19 7 24 7;
#X connect 20 0 4 0;
#X connect 22 0 4 0;
#X connect 24 0 10 0;
#X connect 24 1 11 0;
#X connect 24 1 27 1;
#X connect 24 2 12 0;
#X connect 24 3 13 0;
#X connect 24 3 28 1;
#X connect 24 4 14 0;
#X connect 24 5 15 0;
#X connect 24 6 16 0;
#X connect 24 7 17 0;
#X connect 25 0 26 0;
#X connect 26 0 20 0;
#X connect 26 1 22 0;
#X connect 27 0 35 0;
#X connect 28 0 36 0;
#X connect 31 0 33 0;
#X connect 34 0 27 0;
#X connect 34 0 28 0;
#X connect 37 0 4 0;
#X connect 38 0 33 0;
