#N canvas 616 187 664 524 10;
#X declare -lib mrpeach;
#X declare -lib pduino;
#X obj 20 -10 import mrpeach;
#N canvas 1 77 600 492 connection 0;
#X obj 112 120 bng 15 250 50 0 empty empty connect_p55 17 7 0 8 -4034
-1 -1;
#N canvas 291 202 371 415 connect_to_processing 0;
#X obj 108 209 udpsend;
#X obj 108 244 tgl 15 0 empty empty 1=connected 20 8 0 8 -4034 -257985
-1 1 1;
#X obj 108 178 packOSC;
#X floatatom 174 209 5 0 0 0 - - -;
#X msg 79 129 disconnect;
#X msg 16 103 connect 127.0.0.1 22222;
#X obj 199 117 r sendProcessing;
#X obj 38 31 inlet;
#X obj 48 280 outlet;
#X obj 119 33 inlet;
#X obj 267 195 print;
#X obj 271 165 spigot;
#X obj 311 144 tgl 15 0 empty empty empty 17 7 0 10 -262144 -1 -1 0
1;
#X obj 305 49 inlet;
#X obj 188 157 spigot;
#X connect 0 0 1 0;
#X connect 1 0 8 0;
#X connect 1 0 14 1;
#X connect 2 0 0 0;
#X connect 2 1 3 0;
#X connect 4 0 0 0;
#X connect 5 0 0 0;
#X connect 6 0 11 0;
#X connect 6 0 14 0;
#X connect 7 0 5 0;
#X connect 9 0 4 0;
#X connect 11 0 10 0;
#X connect 12 0 11 1;
#X connect 13 0 12 0;
#X connect 14 0 2 0;
#X restore 358 92 pd connect_to_processing;
#X obj 112 137 tgl 15 0 empty empty status 17 7 0 8 -260097 -1 -1 1
1;
#X obj 203 121 bng 15 250 50 0 empty empty disconnect 17 7 0 8 -258113
-1 -1;
#X obj 202 138 tgl 15 0 empty empty monitor 17 7 0 8 -260097 -1 -1
0 1;
#X text 513 65 monitor;
#X connect 0 0 1 0;
#X connect 1 0 2 0;
#X connect 3 0 1 1;
#X connect 4 0 1 2;
#X coords 0 -1 1 1 200 60 1 100 100;
#X restore 19 -94 pd connection;
#N canvas 905 113 450 300 timer 0;
#X floatatom 67 219 5 0 0 0 - - -;
#X obj 70 142 metro 1000;
#X obj 51 91 bng 15 250 50 0 empty empty empty 17 7 0 10 -262144 -1
-1;
#X msg 88 95 stop;
#X floatatom 194 116 5 0 0 0 - - -;
#X text 228 115 segons mostra;
#X obj 45 21 inlet;
#X obj 92 25 inlet;
#X obj 182 28 inlet;
#X obj 111 264 outlet;
#X obj 66 178 count 120;
#X obj 112 212 select 19;
#X connect 1 0 10 0;
#X connect 2 0 1 0;
#X connect 3 0 1 0;
#X connect 4 0 10 1;
#X connect 4 0 11 1;
#X connect 6 0 1 0;
#X connect 7 0 3 0;
#X connect 8 0 4 0;
#X connect 10 0 0 0;
#X connect 10 0 11 0;
#X connect 11 0 9 0;
#X restore 67 169 pd timer;
#X obj 177 0 bng 15 250 50 0 empty empty start 17 7 0 8 -262144 -1
-1;
#X obj 88 117 bng 15 250 50 0 empty empty stop 17 7 0 8 -262144 -1
-1;
#X floatatom 142 142 5 0 0 0 segons - -;
#X text 243 -97 audio IN;
#X obj 34 190 bng 15 250 50 0 empty empty empty 17 7 0 10 -262144 -1
-1;
#X obj 66 197 s get_timer;
#N canvas 249 77 1114 687 audio_box 0;
#X obj 105 150 mb-audio_file;
#X obj 106 132 bng 15 250 50 0 plst0gplaylist_add_dir_init empty add_dir
17 7 0 8 -4160 -1 -1;
#X obj 87 40 r plst0gplaylist_file_out;
#X obj 266 37 r plst0gplaylist_bang;
#N canvas 1 206 221 242 playlist0_win 0;
#X obj 10 2 mb-gplaylist plst0;
#X restore 428 108 pd playlist0_win;
#X obj 417 208 f \$0;
#X symbolatom 423 252 0 0 0 0 - - -;
#X msg 416 302 \; \$1 vis \$2;
#X obj 416 273 pack symbol float;
#X obj 416 187 t b f;
#X obj 416 138 r view_plst0;
#X obj 416 230 makesymbol pd-playlist0_win;
#X obj 214 132 tgl 15 0 view_plst0 empty view 17 7 0 8 -260097 -1 -1
0 1;
#X obj 170 132 bng 15 250 50 0 plst0gplaylist_next_init empty next
17 7 0 8 -260097 -1 -1;
#X obj 118 256 mb-audio_out;
#X obj 5 279 r~ audio_s1;
#X obj 6 308 r~ audio_s2;
#X obj 106 105 cnv 15 90 20 empty empty AUDIO_INPUT 2 12 0 10 -99865
-262144 0;
#X obj 105 233 cnv 15 160 20 empty empty AUDIO_PLAYER 2 12 0 10 -99865
-262144 0;
#X obj 202 107 tgl 15 0 audio_input1 audio_input1_in file/adc 17 7
0 12 -262144 -1 -1 0 1;
#X obj 11 216 s~ audio_f1;
#X obj 5 253 s~ audio_f2;
#X obj 143 330 adc~ 1 2;
#X obj 143 387 s~ audio_adc1;
#X obj 188 364 s~ audio_adc2;
#X obj 525 368 r~ audio_f1;
#X obj 411 367 r~ audio_adc1;
#X obj 526 443 *~ 0;
#X obj 411 440 *~ 1;
#X obj 193 436 r audio_input1;
#X obj 431 402 r adc1_on;
#X obj 548 404 r file1_on;
#X obj 193 478 select 0 1;
#X msg 185 534 0;
#X msg 216 536 1;
#X msg 272 535 0;
#X msg 303 537 1;
#X obj 170 584 s adc1_on;
#X obj 286 585 s file1_on;
#X obj 411 491 s~ audio_s1;
#X obj 747 441 *~ 0;
#X obj 632 438 *~ 1;
#X obj 652 400 r adc1_on;
#X obj 769 402 r file1_on;
#X obj 632 365 r~ audio_adc2;
#X obj 746 366 r~ audio_f2;
#X obj 632 489 s~ audio_s2;
#X connect 0 0 20 0;
#X connect 0 1 21 0;
#X connect 2 0 0 0;
#X connect 3 0 0 1;
#X connect 5 0 11 0;
#X connect 8 0 7 0;
#X connect 9 0 5 0;
#X connect 9 1 8 1;
#X connect 10 0 9 0;
#X connect 11 0 6 0;
#X connect 11 0 8 0;
#X connect 15 0 14 0;
#X connect 16 0 14 1;
#X connect 22 0 23 0;
#X connect 22 1 24 0;
#X connect 25 0 27 0;
#X connect 26 0 28 0;
#X connect 27 0 39 0;
#X connect 28 0 39 0;
#X connect 29 0 32 0;
#X connect 30 0 28 1;
#X connect 31 0 27 1;
#X connect 32 0 34 0;
#X connect 32 0 35 0;
#X connect 32 1 33 0;
#X connect 32 1 36 0;
#X connect 33 0 37 0;
#X connect 34 0 37 0;
#X connect 35 0 38 0;
#X connect 36 0 38 0;
#X connect 40 0 46 0;
#X connect 41 0 46 0;
#X connect 42 0 41 1;
#X connect 43 0 40 1;
#X connect 44 0 41 0;
#X connect 45 0 40 0;
#X coords 0 -1 1 1 200 200 2 100 100;
#X restore 320 -104 pd audio_box;
#N canvas 364 121 631 498 amplitude_analysis 0;
#X obj 126 130 env~;
#X floatatom 92 152 0 0 0 0 - - -;
#X obj 127 58 inlet~;
#X floatatom 140 234 0 0 0 0 - - -;
#X obj 439 61 inlet;
#X text 480 60 bang agafa mostra;
#X obj 403 120 t b b;
#X floatatom 155 335 0 0 0 0 - - -;
#X obj 189 290 int;
#X obj 188 338 outlet;
#X obj 139 202 average 100;
#X msg 299 159 reset;
#X connect 0 0 10 0;
#X connect 0 0 1 0;
#X connect 2 0 0 0;
#X connect 4 0 6 0;
#X connect 6 0 11 0;
#X connect 6 1 8 0;
#X connect 8 0 7 0;
#X connect 8 0 9 0;
#X connect 10 0 3 0;
#X connect 10 0 8 1;
#X connect 11 0 10 0;
#X restore 256 158 pd amplitude_analysis;
#X obj 379 118 r get_timer;
#X obj 22 157 bng 15 250 50 0 empty empty empty 17 7 0 10 -262144 -1
-1;
#X floatatom 209 195 5 0 0 0 - - -;
#X obj 257 117 r~ audio_s1;
#N canvas 753 91 574 602 Arduino_Sensors 0;
#N canvas 146 163 525 433 serin 0;
#X obj 180 61 cnv 15 15 15 empty \$0-number-canvas 0 4 8 0 14 -233017
-1 0;
#X obj 200 225 s \$0-number-canvas;
#X obj 60 61 hradio 15 1 1 8 empty empty empty 0 -6 0 8 -225271 -1
-1 0;
#X obj 60 13 inlet;
#X msg 200 202 label \$1;
#X obj 200 180 makefilename %d;
#X obj 59 108 int;
#X msg 59 206 open \$1;
#X obj 59 377 outlet;
#X msg 201 306 set \$1 \$2;
#X obj 59 266 trigger bang anything;
#X obj 201 286 list;
#X obj 383 383 outlet;
#X obj 384 22 netreceive 34567;
#X obj 477 43 tgl 15 0 empty empty empty 0 -6 0 10 -262144 -1 -1 0
1;
#X obj 384 41 bng 15 250 50 0 empty empty empty 0 -6 0 10 -262144 -1
-1;
#X obj 187 24 delay 15000;
#X text 345 379 close;
#X text 209 4 for open/close automation in Makefile;
#X obj 184 95 bang;
#X obj 184 137 send ARDUINO_TEST_RESET;
#X msg 184 116 set 0;
#X connect 2 0 6 0;
#X connect 2 0 19 0;
#X connect 3 0 2 0;
#X connect 4 0 1 0;
#X connect 5 0 4 0;
#X connect 6 0 5 0;
#X connect 6 0 7 0;
#X connect 7 0 10 0;
#X connect 9 0 8 0;
#X connect 10 0 8 0;
#X connect 10 1 11 0;
#X connect 11 0 9 0;
#X connect 13 0 15 0;
#X connect 13 1 14 0;
#X connect 15 0 16 0;
#X connect 15 0 12 0;
#X connect 16 0 2 0;
#X connect 19 0 21 0;
#X connect 21 0 20 0;
#X coords 0 -1 1 1 136 17 1 60 60;
#X restore 41 47 pd serin;
#X text 38 29 serial port #;
#X msg 101 70 close;
#X msg 41 70 open 0;
#X obj 161 169 arduino 0;
#N canvas 3 48 451 224 ver 0;
#X obj 23 7 inlet;
#X obj 250 100 cnv 15 145 17 empty \$0-version_cnv Firmata-2.3 4 10
0 12 -203904 -1 0;
#X obj 23 157 send \$0-version_cnv;
#X msg 23 132 label \$1;
#X obj 48 103 symbol;
#X obj 38 77 loadbang;
#X msg 96 78 bang;
#X obj 309 163 outlet;
#X obj 23 52 zexy/makesymbol Firmata-%s.%s;
#X obj 23 29 route version bang;
#X connect 0 0 9 0;
#X connect 3 0 2 0;
#X connect 4 0 3 0;
#X connect 5 0 4 0;
#X connect 6 0 4 0;
#X connect 8 0 3 0;
#X connect 9 0 8 0;
#X connect 9 1 7 0;
#X connect 9 1 6 0;
#X connect 9 2 7 0;
#X coords 0 -1 1 1 145 17 1 250 100;
#X restore 212 239 pd ver;
#N canvas 649 518 411 212 firmware 0;
#X obj 123 2 inlet;
#X obj 250 100 cnv 15 145 17 empty \$0-firmware_cnv StandardFirmata.ino-2.3
4 10 0 12 -232576 -66577 0;
#X msg 123 156 label \$1;
#X obj 148 127 symbol;
#X obj 138 101 loadbang;
#X msg 196 102 bang;
#X obj 123 181 send \$0-firmware_cnv;
#X obj 123 24 route firmware;
#X obj 18 181 print Firmware;
#X obj 123 49 list;
#X obj 123 80 zexy/makesymbol %s-%s.%s;
#X obj 18 151 list trim;
#X obj 204 45 route bang;
#X connect 0 0 7 0;
#X connect 2 0 6 0;
#X connect 3 0 2 0;
#X connect 4 0 3 0;
#X connect 5 0 3 0;
#X connect 7 0 9 0;
#X connect 7 1 12 0;
#X connect 9 0 10 0;
#X connect 10 0 2 0;
#X connect 10 0 11 0;
#X connect 11 0 8 0;
#X connect 12 0 5 0;
#X coords 0 -1 1 1 145 17 1 250 100;
#X restore 212 259 pd firmware;
#N canvas 626 98 404 287 device 0;
#X obj 35 60 inlet;
#X obj 35 118 route open port ports;
#X obj 35 169 tgl 15 0 empty empty open -3 20 0 10 -262144 -1 -1 0
1;
#X floatatom 76 170 5 0 0 3 port - -;
#X obj 117 170 print comport_ports;
#X obj 252 170 outlet;
#X obj 235 74 receive ARDUINO_TEST_RESET;
#X obj 235 97 bang;
#X connect 0 0 1 0;
#X connect 1 0 2 0;
#X connect 1 1 3 0;
#X connect 1 2 4 0;
#X connect 1 3 5 0;
#X connect 6 0 7 0;
#X connect 7 0 5 0;
#X restore 212 217 pd device info;
#X text 304 217 <- open to see info;
#X obj 43 -21 import pduino;
#X floatatom 161 379 5 0 0 3 a0 - -;
#X floatatom 207 379 5 0 0 3 a1 - -;
#X floatatom 253 379 5 0 0 3 a2 - -;
#X floatatom 299 379 5 0 0 3 a3 - -;
#X floatatom 345 379 5 0 0 3 a4 - -;
#X floatatom 391 379 5 0 0 3 a5 - -;
#X floatatom 437 379 5 0 0 3 a6 - -;
#X floatatom 483 379 5 0 0 3 a7 - -;
#X obj 161 284 route analog;
#X obj 161 306 route 0 1 2 3 4 5 6 7;
#X msg 233 73 analogIns 1 1;
#X text 251 53 A1->ph Meter;
#X msg 260 120 analogIns 3 1;
#X text 301 100 Termometer;
#N canvas 1 77 499 396 without 0;
#X obj 6 7 inlet;
#X obj 6 28 mapping/resample 100;
#X obj 6 50 outlet;
#X obj 54 50 inlet;
#X obj 54 71 mapping/resample 100;
#X obj 54 93 outlet;
#X obj 103 93 inlet;
#X obj 103 114 mapping/resample 100;
#X obj 103 136 outlet;
#X obj 151 136 inlet;
#X obj 151 157 mapping/resample 100;
#X obj 151 179 outlet;
#X obj 200 179 inlet;
#X obj 200 200 mapping/resample 100;
#X obj 200 222 outlet;
#X obj 247 222 inlet;
#X obj 247 243 mapping/resample 100;
#X obj 247 265 outlet;
#X obj 295 265 inlet;
#X obj 295 286 mapping/resample 100;
#X obj 295 308 outlet;
#X obj 345 308 inlet;
#X obj 345 329 mapping/resample 100;
#X obj 345 351 outlet;
#X connect 0 0 1 0;
#X connect 1 0 2 0;
#X connect 3 0 4 0;
#X connect 4 0 5 0;
#X connect 6 0 7 0;
#X connect 7 0 8 0;
#X connect 9 0 10 0;
#X connect 10 0 11 0;
#X connect 12 0 13 0;
#X connect 13 0 14 0;
#X connect 15 0 16 0;
#X connect 16 0 17 0;
#X connect 18 0 19 0;
#X connect 19 0 20 0;
#X connect 21 0 22 0;
#X connect 22 0 23 0;
#X restore 161 335 pd without pegging the CPU;
#X obj 233 -10 inlet;
#X obj 233 16 t b b;
#X obj 130 420 f;
#X obj 190 439 f;
#X text 36 8 start arduino;
#X text 270 -11 set analog input ports;
#X obj 417 -5 inlet;
#X text 455 -7 get values;
#X obj 417 27 s get_arduino;
#X obj 44 363 r get_arduino;
#X floatatom 41 416 5 0 0 0 - - -;
#X floatatom 244 458 5 0 0 0 - - -;
#X msg 268 148 analogIns 3 0;
#X obj 519 16 bng 15 250 50 0 empty empty empty 17 7 0 10 -262144 -1
-1;
#X obj 128 541 outlet;
#X obj 192 542 outlet;
#X floatatom 42 466 5 0 0 0 - - -;
#X text 4 442 php factor conversio;
#X obj 127 447 * 7;
#X obj 201 472 * 80;
#X connect 0 0 3 0;
#X connect 0 1 2 0;
#X connect 2 0 4 0;
#X connect 3 0 4 0;
#X connect 4 0 18 0;
#X connect 4 1 7 0;
#X connect 5 0 6 0;
#X connect 7 0 5 0;
#X connect 18 0 19 0;
#X connect 19 0 24 0;
#X connect 19 1 24 1;
#X connect 19 2 24 2;
#X connect 19 3 24 3;
#X connect 19 4 24 4;
#X connect 19 5 24 5;
#X connect 19 6 24 6;
#X connect 19 7 24 7;
#X connect 20 0 4 0;
#X connect 22 0 4 0;
#X connect 24 0 10 0;
#X connect 24 1 11 0;
#X connect 24 1 27 1;
#X connect 24 2 12 0;
#X connect 24 3 13 0;
#X connect 24 3 28 1;
#X connect 24 4 14 0;
#X connect 24 5 15 0;
#X connect 24 6 16 0;
#X connect 24 7 17 0;
#X connect 25 0 26 0;
#X connect 26 0 20 0;
#X connect 27 0 35 0;
#X connect 27 0 43 0;
#X connect 28 0 36 0;
#X connect 28 0 44 0;
#X connect 31 0 33 0;
#X connect 34 0 27 0;
#X connect 34 0 28 0;
#X connect 37 0 4 0;
#X connect 38 0 33 0;
#X connect 43 0 41 0;
#X connect 43 0 39 0;
#X connect 44 0 40 0;
#X restore 463 174 pd Arduino_Sensors;
#X obj 177 24 s main_start;
#X obj 67 93 r main_start;
#X obj 463 113 r main_start;
#X obj 568 142 r get_timer;
#X obj 414 231 pack f f f;
#X msg 381 320 /missatge 48 3.2434 25.7282;
#X obj 378 346 s sendProcessing;
#X msg 413 272 set /missatge \$1 \$2 \$3;
#X obj 426 298 t a b;
#X connect 2 0 7 0;
#X connect 2 0 8 0;
#X connect 3 0 16 0;
#X connect 4 0 2 1;
#X connect 5 0 2 2;
#X connect 10 0 13 0;
#X connect 10 0 20 0;
#X connect 11 0 10 1;
#X connect 12 0 8 0;
#X connect 14 0 10 0;
#X connect 15 0 20 1;
#X connect 15 1 20 2;
#X connect 17 0 2 0;
#X connect 18 0 15 0;
#X connect 19 0 15 1;
#X connect 20 0 23 0;
#X connect 21 0 22 0;
#X connect 23 0 24 0;
#X connect 24 0 21 0;
#X connect 24 1 21 0;
